name pl10_filtered_grf.mot
datacolumns 37
datarows 14
range 0.002500 0.009000
endheader
time	1_ground_force_vx	1_ground_force_vy	1_ground_force_vz	1_ground_force_px	1_ground_force_py	1_ground_force_pz	1_ground_torque_x	1_ground_torque_y	1_ground_torque_z	2_ground_force_vx	2_ground_force_vy	2_ground_force_vz	2_ground_force_px	2_ground_force_py	2_ground_force_pz	2_ground_torque_x	2_ground_torque_y	2_ground_torque_z	3_ground_force_vx	3_ground_force_vy	3_ground_force_vz	3_ground_force_px	3_ground_force_py	3_ground_force_pz	3_ground_torque_x	3_ground_torque_y	3_ground_torque_z	4_ground_force_vx	4_ground_force_vy	4_ground_force_vz	4_ground_force_px	4_ground_force_py	4_ground_force_pz	4_ground_torque_x	4_ground_torque_y	4_ground_torque_z
            0.002500	           -0.000000	            0.000000	            0.000000	            0.136890	            0.000000	            0.232777	            0.000000	            0.000000	           -0.000000	           -0.000000	            0.000000	            0.000000	           -0.137729	            0.000000	            0.252797	            0.000000	           -0.000000	            0.000000	           11.779323	          274.751940	          252.398639	            0.374821	            1.309390	            1.915469	           -0.630655	          -14.709986	          -13.513210	          -15.905082	          433.471093	          322.523533	           -0.265908	            1.308957	            1.926807	           -0.767969	           20.929940	           15.572891
            0.003000	           -0.000000	            0.000000	            0.000000	            0.136890	            0.000000	            0.232777	            0.000000	            0.000000	           -0.000000	           -0.000000	            0.000000	            0.000000	           -0.137729	            0.000000	            0.252797	            0.000000	           -0.000000	            0.000000	           11.807329	          275.242482	          253.061956	            0.374821	            1.309390	            1.915469	           -0.632087	          -14.734675	          -13.547275	          -15.941129	          434.708950	          323.813572	           -0.265908	            1.308957	            1.926807	           -0.769824	           20.992828	           15.637503
            0.003500	           -0.000000	            0.000000	            0.000000	            0.136890	            0.000000	            0.232777	            0.000000	            0.000000	           -0.000000	           -0.000000	            0.000000	            0.000000	           -0.137729	            0.000000	            0.252797	            0.000000	           -0.000000	            0.000000	           11.839986	          275.742219	          253.745972	            0.374815	            1.309389	            1.915481	           -0.633765	          -14.759801	          -13.582396	          -15.975869	          435.971458	          325.121077	           -0.265908	            1.308957	            1.926817	           -0.771576	           21.055826	           15.702158
            0.004000	           -0.000000	            0.000000	            0.000000	            0.136890	            0.000000	            0.232777	            0.000000	            0.000000	           -0.000000	           -0.000000	            0.000000	            0.000000	           -0.137729	            0.000000	            0.252797	            0.000000	           -0.000000	            0.000000	           11.877747	          276.250526	          254.450700	            0.374809	            1.309387	            1.915494	           -0.635715	          -14.785356	          -13.618596	          -16.009509	          437.256416	          326.444144	           -0.265908	            1.308958	            1.926826	           -0.773234	           21.118789	           15.766733
            0.004500	           -0.000000	            0.000000	            0.000000	            0.136890	            0.000000	            0.232777	            0.000000	            0.000000	           -0.000000	           -0.000000	            0.000000	            0.000000	           -0.137729	            0.000000	            0.252797	            0.000000	           -0.000000	            0.000000	           11.921031	          276.766787	          255.176177	            0.374803	            1.309386	            1.915506	           -0.637961	          -14.811332	          -13.655898	          -16.042277	          438.561607	          327.780945	           -0.265908	            1.308958	            1.926836	           -0.774807	           21.181579	           15.831112
            0.005000	           -0.000000	            0.000000	            0.000000	            0.136890	            0.000000	            0.232777	            0.000000	            0.000000	           -0.000000	           -0.000000	            0.000000	            0.000000	           -0.137729	            0.000000	            0.252797	            0.000000	           -0.000000	            0.000000	           11.970217	          277.290404	          255.922458	            0.374797	            1.309384	            1.915519	           -0.640522	          -14.837721	          -13.694329	          -16.074425	          439.884810	          329.129743	           -0.265908	            1.308959	            1.926846	           -0.776308	           21.244065	           15.895192
            0.005500	           -0.000000	            0.000000	            0.000000	            0.136890	            0.000000	            0.232777	            0.000000	            0.000000	           -0.000000	           -0.000000	            0.000000	            0.000000	           -0.137729	            0.000000	            0.252797	            0.000000	           -0.000000	            0.000000	           12.021204	          277.817232	          256.693685	            0.374791	            1.309383	            1.915532	           -0.643182	          -14.864323	          -13.734129	          -16.103327	          441.227176	          330.484550	           -0.265908	            1.308959	            1.926856	           -0.777609	           21.306284	           15.958667
            0.006000	           -0.000000	            0.000000	            0.000000	            0.136890	            0.000000	            0.232777	            0.000000	            0.000000	           -0.000000	           -0.000000	            0.000000	            0.000000	           -0.137729	            0.000000	            0.252797	            0.000000	           -0.000000	            0.000000	           12.078692	          278.350252	          257.485902	            0.374785	            1.309382	            1.915546	           -0.646192	          -14.891320	          -13.775109	          -16.132156	          442.583171	          331.848168	           -0.265908	            1.308959	            1.926865	           -0.778862	           21.367960	           16.021663
            0.006500	           -0.000000	            0.000000	            0.000000	            0.136890	            0.000000	            0.232777	            0.000000	            0.000000	           -0.000000	           -0.000000	            0.000000	            0.000000	           -0.137729	            0.000000	            0.252797	            0.000000	           -0.000000	            0.000000	           12.142922	          278.888929	          258.299215	            0.374779	            1.309382	            1.915559	           -0.649566	          -14.918705	          -13.817292	          -16.161214	          443.950629	          333.219193	           -0.265908	            1.308960	            1.926875	           -0.780083	           21.428986	           16.084107
            0.007000	           -0.000000	            0.000000	            0.000000	            0.136890	            0.000000	            0.232777	            0.000000	            0.000000	           -0.000000	           -0.000000	            0.000000	            0.000000	           -0.137729	            0.000000	            0.252797	            0.000000	           -0.000000	            0.000000	           12.214089	          279.432749	          259.133737	            0.374773	            1.309381	            1.915573	           -0.653315	          -14.946469	          -13.860703	          -16.190810	          445.327421	          334.596347	           -0.265908	            1.308960	            1.926885	           -0.781287	           21.489263	           16.145938
            0.007500	           -0.000000	            0.000000	            0.000000	            0.136890	            0.000000	            0.232777	            0.000000	            0.000000	           -0.000000	           -0.000000	            0.000000	            0.000000	           -0.137729	            0.000000	            0.252797	            0.000000	           -0.000000	            0.000000	           12.292334	          279.981221	          259.989587	            0.374768	            1.309380	            1.915586	           -0.657447	          -14.974604	          -13.905365	          -16.221264	          446.711466	          335.978481	           -0.265908	            1.308960	            1.926895	           -0.782490	           21.548702	           16.207107
            0.008000	           -0.000000	            0.000000	            0.000000	            0.136890	            0.000000	            0.232777	            0.000000	            0.000000	           -0.000000	           -0.000000	            0.000000	            0.000000	           -0.137729	            0.000000	            0.252797	            0.000000	           -0.000000	            0.000000	           12.369292	          280.526925	          260.874764	            0.374761	            1.309380	            1.915601	           -0.661516	          -15.002728	          -13.951720	          -16.247668	          448.106716	          337.356890	           -0.265908	            1.308960	            1.926905	           -0.783456	           21.607514	           16.267205
            0.008500	            0.000000	            0.000000	            0.000000	            0.136890	            0.000000	            0.232777	            0.000000	           -0.000000	           -0.000000	           -0.000000	            0.000000	            0.000000	           -0.137729	            0.000000	            0.252797	            0.000000	           -0.000000	            0.000000	           12.453404	          281.076326	          261.781531	            0.374755	            1.309380	            1.915616	           -0.665974	          -15.031203	          -13.999369	          -16.275544	          449.505273	          338.738336	           -0.265908	            1.308959	            1.926916	           -0.784452	           21.665342	           16.326576
            0.009000	            0.000000	           -0.000000	           -0.000000	            0.136890	            0.000000	            0.232777	           -0.000000	           -0.000000	            0.000000	           -0.000000	            0.000000	            0.000000	           -0.137729	            0.000000	            0.252797	            0.000000	           -0.000000	            0.000000	           12.544663	          281.629002	          262.709985	            0.374749	            1.309380	            1.915631	           -0.670822	          -15.060017	          -14.048329	          -16.305211	          450.905235	          340.122070	           -0.265908	            1.308959	            1.926926	           -0.785495	           21.722126	           16.385204
